<svg width="220" height="220" viewBox="0 0 220 220" fill="none" xmlns="http://www.w3.org/2000/svg">
  <path d="M36 46C55 37 72 48 85 64C95 49 106 40 110 40C114 40 125 49 135 64C148 48 165 37 184 46C176 64 176 78 183 92C193 104 198 118 198 135C198 173 164 196 110 196C56 196 22 173 22 135C22 118 27 104 37 92C44 78 44 64 36 46Z" fill="white"/>
  <path d="M54 60C69 53 81 63 91 77C98 66 106 58 110 58C114 58 122 66 129 77C139 63 151 53 166 60C160 73 161 84 166 95C174 105 178 116 178 130C178 160 151 178 110 178C69 178 42 160 42 130C42 116 46 105 54 95C59 84 60 73 54 60Z" fill="#222329"/>
  <ellipse cx="110" cy="124" rx="38" ry="35" fill="#FFFDFE"/>
  <ellipse cx="92.5" cy="112" rx="7" ry="8.5" fill="#19191B"/>
  <ellipse cx="127.5" cy="112" rx="7" ry="8.5" fill="#19191B"/>
  <path d="M104 123L99 132H121L116 123H104Z" fill="#F7B01C"/>
  <path d="M97 141C103 145 117 145 123 141" stroke="#F0A2BF" stroke-width="4.5" stroke-linecap="round"/>
  <ellipse cx="110" cy="88" rx="14" ry="10.5" fill="#F3A1BE"/>
  <circle cx="104.5" cy="88" r="2.4" fill="#232329"/>
  <circle cx="115.5" cy="88" r="2.4" fill="#232329"/>
  <rect x="39" y="149" width="43" height="26" rx="13" fill="#F5DDF1"/>
  <path d="M52 162L56 166L68 153" stroke="#7C55AC" stroke-width="5" stroke-linecap="round" stroke-linejoin="round"/>
  <circle cx="159" cy="158" r="13" fill="#FDEAF0"/>
  <circle cx="159" cy="158" r="5" fill="#7F57AF"/>
</svg>
