<svg width="220" height="220" viewBox="0 0 220 220" fill="none" xmlns="http://www.w3.org/2000/svg">
  <path d="M32 58C58 36 81 37 101 56C106 45 109 38 110 38C111 38 114 45 119 56C139 37 162 36 188 58C177 72 175 84 180 96C188 106 192 118 192 132C192 170 160 194 110 194C60 194 28 170 28 132C28 118 32 106 40 96C45 84 43 72 32 58Z" fill="white"/>
  <path d="M51 67C71 51 88 53 103 69C107 60 109 54 110 54C111 54 113 60 117 69C132 53 149 51 169 67C161 78 160 87 164 97C171 105 174 115 174 128C174 158 148 176 110 176C72 176 46 158 46 128C46 115 49 105 56 97C60 87 59 78 51 67Z" fill="#212228"/>
  <ellipse cx="110" cy="124" rx="37" ry="33" fill="#FFFCFD"/>
  <circle cx="94" cy="113" r="7" fill="#18191C"/>
  <circle cx="126" cy="113" r="7" fill="#18191C"/>
  <path d="M103 122L98 131H122L117 122H103Z" fill="#F7B01C"/>
  <path d="M96 139C103 145 117 145 124 139" stroke="#EFA0BE" stroke-width="4.5" stroke-linecap="round"/>
  <ellipse cx="110" cy="90" rx="14" ry="10.5" fill="#F3A1BE"/>
  <circle cx="104.5" cy="90" r="2.4" fill="#232329"/>
  <circle cx="115.5" cy="90" r="2.4" fill="#232329"/>
  <rect x="146" y="149" width="34" height="23" rx="11.5" fill="#FCE7EE"/>
  <path d="M158 154L160 159L165 159L161 162L163 167L158 164L153 167L155 162L151 159L156 159L158 154Z" fill="#7F57AF"/>
  <path d="M67 149L58 159L47 151" stroke="#FFFFFF" stroke-width="6" stroke-linecap="round" stroke-linejoin="round"/>
  <path d="M153 149L162 159L173 151" stroke="#FFFFFF" stroke-width="6" stroke-linecap="round" stroke-linejoin="round"/>
</svg>
