<svg width="220" height="220" viewBox="0 0 220 220" fill="none" xmlns="http://www.w3.org/2000/svg">
  <path d="M43 40C58 36 74 49 86 65C95 52 106 44 110 44C114 44 125 52 134 65C146 49 162 36 177 40C170 57 170 71 176 83C187 94 194 108 194 127C194 168 162 194 110 194C58 194 26 168 26 127C26 108 33 94 44 83C50 71 50 57 43 40Z" fill="white"/>
  <path d="M60 55C72 52 82 64 90 76C98 66 105 60 110 60C115 60 122 66 130 76C138 64 148 52 160 55C155 67 156 77 162 87C171 96 176 107 176 124C176 157 149 176 110 176C71 176 44 157 44 124C44 107 49 96 58 87C64 77 65 67 60 55Z" fill="#222329"/>
  <ellipse cx="110" cy="122" rx="39" ry="35" fill="#FFFDFE"/>
  <ellipse cx="93" cy="111" rx="7" ry="8.5" fill="#19191B"/>
  <ellipse cx="127" cy="111" rx="7" ry="8.5" fill="#19191B"/>
  <path d="M104 122L99 131H121L116 122H104Z" fill="#F7B01C"/>
  <path d="M98 139C104 143 116 143 122 139" stroke="#F0A2BF" stroke-width="4.5" stroke-linecap="round"/>
  <ellipse cx="110" cy="87" rx="14" ry="10.5" fill="#F3A1BE"/>
  <circle cx="104.5" cy="87" r="2.4" fill="#232329"/>
  <circle cx="115.5" cy="87" r="2.4" fill="#232329"/>
  <path d="M77 151C70 145 60 143 51 146" stroke="#FFFFFF" stroke-width="6" stroke-linecap="round"/>
  <path d="M143 151C150 145 160 143 169 146" stroke="#FFFFFF" stroke-width="6" stroke-linecap="round"/>
  <circle cx="58" cy="165" r="10" fill="#F6DDF0"/>
  <path d="M58 159L60 164L65 164L61 167L63 172L58 169L53 172L55 167L51 164L56 164L58 159Z" fill="#7F57AF"/>
</svg>
