<svg width="220" height="220" viewBox="0 0 220 220" fill="none" xmlns="http://www.w3.org/2000/svg">
  <defs>
    <filter id="shadow" x="12" y="14" width="196" height="190" filterUnits="userSpaceOnUse" color-interpolation-filters="sRGB">
      <feDropShadow dx="0" dy="8" stdDeviation="8" flood-color="#7A6474" flood-opacity="0.18"/>
    </filter>
  </defs>
  <g filter="url(#shadow)">
    <path d="M110 20C118 20 126 28 132 42L162 34C161 50 164 60 172 68C185 80 192 94 192 115C192 154 159 184 110 184C61 184 28 154 28 115C28 94 35 80 48 68C56 60 59 50 58 34L88 42C94 28 102 20 110 20Z" fill="white"/>
    <path d="M110 38C117 38 124 47 129 59L153 52C153 63 156 72 164 78C174 87 180 98 180 114C180 147 152 172 110 172C68 172 40 147 40 114C40 98 46 87 56 78C64 72 67 63 67 52L91 59C96 47 103 38 110 38Z" fill="#202125"/>
    <ellipse cx="110" cy="118" rx="38" ry="34" fill="#FFFEFE"/>
    <circle cx="93" cy="107" r="8" fill="#18191C"/>
    <circle cx="127" cy="107" r="8" fill="#18191C"/>
    <path d="M108 118L102 128H118L112 118H108Z" fill="#FDB31C"/>
    <path d="M96 138C104 143 117 143 124 138" stroke="#F3A5C0" stroke-width="5" stroke-linecap="round"/>
    <circle cx="110" cy="81" r="13" fill="#F5A2C2"/>
    <circle cx="105" cy="81" r="2.5" fill="#202125"/>
    <circle cx="115" cy="81" r="2.5" fill="#202125"/>
    <path d="M68 163L56 150L44 163" stroke="#FFFFFF" stroke-width="7" stroke-linecap="round" stroke-linejoin="round"/>
    <path d="M176 163L164 150L152 163" stroke="#FFFFFF" stroke-width="7" stroke-linecap="round" stroke-linejoin="round"/>
    <circle cx="50" cy="54" r="16" fill="#F4D4EA"/>
    <path d="M50 43L53.2 50.3L61 51.1L55 56.1L56.9 63.7L50 59.5L43.1 63.7L45 56.1L39 51.1L46.8 50.3L50 43Z" fill="#8051B3"/>
    <text x="110" y="206" text-anchor="middle" font-family="Arial, sans-serif" font-size="18" font-weight="700" fill="#5B445C">BADTZ CLUB</text>
  </g>
</svg>
