<svg width="220" height="220" viewBox="0 0 220 220" fill="none" xmlns="http://www.w3.org/2000/svg">
  <path d="M36 36C76 24 144 24 184 36C195 60 195 145 184 173C144 186 76 186 36 173C25 145 25 60 36 36Z" fill="white"/>
  <path d="M45 137C45 103 74 86 110 86C146 86 175 103 175 137C175 162 153 179 110 179C67 179 45 162 45 137Z" fill="#FFF8F4"/>
  <ellipse cx="110" cy="112" rx="42" ry="31" fill="#F9C53F"/>
  <path d="M79 103C90 96 102 93 121 95" stroke="#E8A83A" stroke-width="5" stroke-linecap="round"/>
  <ellipse cx="98" cy="112" rx="5" ry="4" fill="#634E43"/>
  <ellipse cx="123" cy="115" rx="5" ry="4" fill="#634E43"/>
  <path d="M98 127C104 131 118 131 124 127" stroke="#7C5C48" stroke-width="4" stroke-linecap="round"/>
  <path d="M80 129C76 141 80 151 93 159" stroke="#7C5C48" stroke-width="4" stroke-linecap="round"/>
  <path d="M140 127C144 139 140 149 127 157" stroke="#7C5C48" stroke-width="4" stroke-linecap="round"/>
  <path d="M60 69C82 53 138 49 162 67" stroke="#F8E0B4" stroke-width="11" stroke-linecap="round"/>
  <path d="M60 69C84 56 136 55 159 69" stroke="#FDEABF" stroke-width="6" stroke-linecap="round"/>
  <circle cx="58" cy="157" r="12" fill="#F8E6C2"/>
  <circle cx="58" cy="157" r="4" fill="#D6A146"/>
</svg>
