<svg width="220" height="220" viewBox="0 0 220 220" fill="none" xmlns="http://www.w3.org/2000/svg">
  <path d="M35 42C72 28 148 28 185 42C195 65 195 146 185 170C148 184 72 184 35 170C25 146 25 65 35 42Z" fill="white"/>
  <path d="M50 141C50 111 76 92 111 92C146 92 172 111 172 141C172 162 151 177 111 177C71 177 50 162 50 141Z" fill="#FFF8F4"/>
  <ellipse cx="111" cy="116" rx="39" ry="28" fill="#F8C33E"/>
  <path d="M84 110C93 102 106 100 127 102" stroke="#E3A43A" stroke-width="5" stroke-linecap="round"/>
  <ellipse cx="99" cy="118" rx="4.8" ry="3.8" fill="#634E43"/>
  <ellipse cx="123" cy="121" rx="4.8" ry="3.8" fill="#634E43"/>
  <path d="M98 132C104 136 117 136 123 132" stroke="#7C5C48" stroke-width="4" stroke-linecap="round"/>
  <path d="M77 136C81 147 89 155 98 159" stroke="#7C5C48" stroke-width="4" stroke-linecap="round"/>
  <path d="M145 133C142 145 134 153 125 158" stroke="#7C5C48" stroke-width="4" stroke-linecap="round"/>
  <path d="M69 73C91 61 130 60 151 73" stroke="#FDE9BD" stroke-width="14" stroke-linecap="round"/>
  <path d="M69 73C89 66 132 66 151 75" stroke="#FFF1CC" stroke-width="7" stroke-linecap="round"/>
  <rect x="144" y="149" width="31" height="22" rx="11" fill="#F6E5BF"/>
  <path d="M152 160C156 155 163 155 167 160" stroke="#D49E47" stroke-width="3.5" stroke-linecap="round"/>
</svg>
