<svg width="220" height="220" viewBox="0 0 220 220" fill="none" xmlns="http://www.w3.org/2000/svg">
  <defs>
    <filter id="shadow" x="10" y="12" width="200" height="196" filterUnits="userSpaceOnUse" color-interpolation-filters="sRGB">
      <feDropShadow dx="0" dy="8" stdDeviation="8" flood-color="#7A6474" flood-opacity="0.18"/>
    </filter>
  </defs>
  <g filter="url(#shadow)">
    <path d="M48 24C72 20 148 20 172 24C186 46 194 70 194 110C194 150 186 174 172 196C148 200 72 200 48 196C34 174 26 150 26 110C26 70 34 46 48 24Z" fill="white"/>
    <path d="M48 136C48 99 76 81 111 81C146 81 174 99 174 136C174 163 151 182 111 182C71 182 48 163 48 136Z" fill="#FFF8F5"/>
    <ellipse cx="111" cy="108" rx="39" ry="29" fill="#FFC740"/>
    <path d="M82 102C94 95 108 92 128 96" stroke="#ECA83A" stroke-width="6" stroke-linecap="round"/>
    <ellipse cx="99" cy="110" rx="5" ry="4.2" fill="#5C473E"/>
    <ellipse cx="124" cy="114" rx="5" ry="4.2" fill="#5C473E"/>
    <path d="M98 126C104 129 118 130 126 126" stroke="#795A45" stroke-width="4.5" stroke-linecap="round"/>
    <path d="M80 128C76 143 83 151 94 157" stroke="#7B5C46" stroke-width="4.5" stroke-linecap="round"/>
    <path d="M142 124C147 139 141 149 129 156" stroke="#7B5C46" stroke-width="4.5" stroke-linecap="round"/>
    <path d="M62 60C83 43 136 39 161 56" stroke="#F5DCAE" stroke-width="11" stroke-linecap="round"/>
    <path d="M65 61C85 47 136 45 158 59" stroke="#FDE9BD" stroke-width="7" stroke-linecap="round"/>
    <circle cx="61" cy="154" r="13" fill="#F9E4BC"/>
    <text x="61" y="159" text-anchor="middle" font-family="Arial, sans-serif" font-size="10" font-weight="700" fill="#8A673C">egg</text>
    <text x="110" y="50" text-anchor="middle" font-family="Arial, sans-serif" font-size="18" font-weight="700" fill="#876340">GUDETAMA</text>
  </g>
</svg>
